HIERARCHY
ROOT Hips
{
	OFFSET 0.00000 0.00000 0.00000
	CHANNELS 6 Xposition Yposition Zposition Zrotation Yrotation Xrotation 
	JOINT LHipJoint
	{
		OFFSET 0 0 0
		CHANNELS 3 Zrotation Yrotation Xrotation
		JOINT LeftHip
		{
			OFFSET 1.84395 -1.68683 0.74144
			CHANNELS 3 Zrotation Yrotation Xrotation
			JOINT LeftKnee
			{
				OFFSET 2.27037 -6.23779 0.00000
				CHANNELS 3 Zrotation Yrotation Xrotation
				JOINT LeftAnkle
				{
					OFFSET 2.56918 -7.05877 0.00000
					CHANNELS 3 Zrotation Yrotation Xrotation
					JOINT LeftToe
					{
						OFFSET 0.22276 -0.61202 1.71784
						CHANNELS 3 Zrotation Yrotation Xrotation
						End Site
						{
							OFFSET 0.00000 -0.00000 0.91613
						}
					}
				}
			}
		}
	}
	JOINT RHipJoint
	{
		OFFSET 0 0 0
		CHANNELS 3 Zrotation Yrotation Xrotation
		JOINT RightHip
		{
			OFFSET -1.76833 -1.68684 0.74144
			CHANNELS 3 Zrotation Yrotation Xrotation
			JOINT RightKnee
			{
				OFFSET -2.49360 -6.85110 0.00000
				CHANNELS 3 Zrotation Yrotation Xrotation
				JOINT RightAnkle
				{
					OFFSET -2.55538 -7.02085 0.00000
					CHANNELS 3 Zrotation Yrotation Xrotation
					JOINT RightToe
					{
						OFFSET -0.21516 -0.59115 1.68050
						CHANNELS 3 Zrotation Yrotation Xrotation
						End Site
						{
							OFFSET -0.00000 -0.00000 0.89604
						}
					}
				}
			}
		}
	}
	JOINT lowerback
	{
		OFFSET 0 0 0
		CHANNELS 3 Zrotation Yrotation Xrotation
		JOINT Chest
		{
			OFFSET 0.06382 1.72312 -0.19613
			CHANNELS 3 Zrotation Yrotation Xrotation
			JOINT Chest2
			{
				OFFSET -0.00055 1.73507 0.23859
				CHANNELS 3 Zrotation Yrotation Xrotation
				JOINT lowerneck
				{
					OFFSET 0 0 0
					CHANNELS 3 Zrotation Yrotation Xrotation
					JOINT Neck
					{
						OFFSET 0.03638 1.65562 0.09633
						CHANNELS 3 Zrotation Yrotation Xrotation
						JOINT Head
						{
							OFFSET 0.06388 1.62807 -0.32386
							CHANNELS 3 Zrotation Yrotation Xrotation
							End Site
							{
								OFFSET 0.00995 1.67644 -0.12021
							}
						}
					}
				}
				JOINT LeftCollar
				{
					OFFSET 0 0 0
					CHANNELS 3 Zrotation Yrotation Xrotation
					JOINT LeftShoulder
					{
						OFFSET 3.09648 1.42991 0.28122
CHANNELS 3 Zrotation Xrotation Yrotation
						JOINT LeftElbow
						{
OFFSET 0 -5.118780 -0.000000
CHANNELS 3 Zrotation Xrotation Yrotation
							JOINT LeftWrist
							{
OFFSET 0 -3.599710 0.000000
CHANNELS 3 Zrotation Xrotation Yrotation
								JOINT lhand
								{
									OFFSET 0 0 0
CHANNELS 3 Zrotation Xrotation Yrotation
									JOINT LFingers
									{
OFFSET 0 -0.628770 0.000000
CHANNELS 3 Zrotation Xrotation Yrotation
										End Site
										{
OFFSET 0 -0.506930 0.000000
										}
									}
								}
								JOINT LThumb
								{
OFFSET 0 0.000000 0.000000
CHANNELS 3 Zrotation Xrotation Yrotation
									End Site
									{
OFFSET 0 -0.514670 0.514670
									}
								}
							}
						}
					}
				}
				JOINT RightCollar
				{
					OFFSET 0 0 0
					CHANNELS 3 Zrotation Yrotation Xrotation
					JOINT RightShoulder
					{
						OFFSET -3.33565 1.14597 0.05047
CHANNELS 3 Zrotation Xrotation Yrotation
						JOINT RightElbow
						{
OFFSET 0 -5.490200 0.000000
CHANNELS 3 Zrotation Xrotation Yrotation
							JOINT RightWrist
							{
OFFSET 0 -3.206590 -0.000000
CHANNELS 3 Zrotation Xrotation Yrotation
								JOINT rhand
								{
									OFFSET 0 0 0
CHANNELS 3 Zrotation Xrotation Yrotation
									JOINT RFingers
									{
OFFSET 0 -0.691880 0.000000
CHANNELS 3 Zrotation Xrotation Yrotation
										End Site
										{
OFFSET 0 -0.557810 0.000000
										}
									}
								}
								JOINT RThumb
								{
OFFSET 0 0.000000 0.000000
CHANNELS 3 Zrotation Xrotation Yrotation
									End Site
									{
OFFSET 0 -0.566330 0.566330
									}
								}
							}
						}
					}
				}
			}
		}
	}
}
MOTION
Frames: 5
Frame Time: 0.008333333333333333
0.011893 17.477218 9.557279 -3.512974 38.780984 9.844678 0.000000 0.000000 0.000000 -11.546848 -38.232701 5.923747 0.029874 -1.114981 -3.065230 -0.805662 15.798171 -8.181344 1.093454 -6.645084 -18.668205 0.000000 0.000000 0.000000 32.664875 21.138755 17.688643 -0.006328 0.512790 -1.409001 -6.438726 -33.392535 -64.297525 -4.557471 -12.867427 38.874163 11.630610 5.438127 -4.474926 1.046907 8.637017 -16.586234 -5.827388 2.994897 -14.708732 3.044999 2.055072 -0.973411 9.707884 6.935215 -30.890926 2.316461 2.264105 -9.963045 0.000000 0.000000 0.000000 -1.395079 27.237856 -11.674141 12.556934 -20.634625 2.294809 14.454472 16.229127 18.337632 0.000000 0.000000 0.000000 -7.125000 0.000000 0.000000 -8.915608 11.259790 -7.091747 0.000000 0.000000 0.000000 -0.726725 26.224793 12.942068 -18.370813 -28.629311 -4.725578 6.530698 22.646500 24.499571 0.000000 0.000000 0.000000 7.125000 0.000000 0.000000 35.535287 50.842516 -5.741638
-0.011990 17.468947 9.596004 -2.993549 38.897083 10.004974 0.000000 0.000000 0.000000 -11.880668 -37.735412 5.855103 0.029138 -1.101226 -3.027319 -0.735153 15.146672 -8.078098 1.115315 -6.709113 -18.856394 0.000000 0.000000 0.000000 32.515565 21.093418 17.959663 -0.006069 0.504134 -1.385416 -6.562483 -33.441251 -64.607094 -4.566731 -12.878631 38.915723 11.293673 5.384156 -5.525159 1.186989 8.386371 -16.484231 -5.353806 2.992422 -14.016238 3.985294 2.340244 -0.481979 9.061206 7.303763 -31.083903 1.885065 2.360466 -10.102087 0.000000 0.000000 0.000000 -1.235475 27.684732 -11.494559 12.624812 -20.734965 2.318801 15.566813 16.600486 16.072940 0.000000 0.000000 0.000000 -7.125000 0.000000 0.000000 -8.131877 13.449534 -6.080422 0.000000 0.000000 0.000000 -0.835316 26.028165 13.087155 -18.188923 -28.398369 -4.638761 6.184984 23.435234 24.271899 0.000000 0.000000 0.000000 7.125000 0.000000 0.000000 35.079870 50.709545 -5.525146
-0.029227 17.461377 9.642850 -2.526045 39.304859 10.149305 0.000000 0.000000 0.000000 -12.268315 -37.567184 5.956643 0.028846 -1.096730 -3.015005 -0.685598 14.675339 -8.033525 1.095347 -6.650669 -18.684646 0.000000 0.000000 0.000000 32.580440 21.116552 18.352028 -0.005977 0.497874 -1.368117 -6.971513 -33.403489 -65.491973 -4.651749 -12.980560 39.295760 11.334670 5.386304 -6.402222 1.030283 8.249816 -16.544525 -5.447455 2.949076 -13.550564 4.295482 2.266389 -0.552995 9.131621 7.171698 -30.663664 1.862993 2.279234 -9.921216 0.000000 0.000000 0.000000 -0.635593 28.012402 -11.029035 12.714557 -20.867566 2.350622 15.280937 16.708257 16.182215 0.000000 0.000000 0.000000 -7.125000 0.000000 0.000000 -8.322147 13.370127 -6.253686 0.000000 0.000000 0.000000 -0.576141 26.276070 13.528986 -18.263626 -28.493372 -4.674327 6.143707 22.931969 24.322176 0.000000 0.000000 0.000000 7.125000 0.000000 0.000000 35.077156 50.758051 -5.570260
-0.041483 17.453640 9.690473 -1.619990 39.488180 10.640797 0.000000 0.000000 0.000000 -13.207123 -37.619673 6.284613 0.030297 -1.124057 -3.090380 -0.690472 14.690094 -7.806287 1.109765 -6.693024 -18.809064 0.000000 0.000000 0.000000 32.102808 21.058886 18.632762 -0.006385 0.514084 -1.412705 -7.192162 -33.411735 -65.981103 -4.750005 -13.096623 39.731358 10.778986 5.337818 -7.618321 0.880250 7.986514 -16.579965 -5.180300 2.930355 -12.921183 5.180806 2.512739 0.416912 8.770779 7.526186 -30.398936 1.530314 2.352412 -9.983615 0.000000 0.000000 0.000000 -0.282466 28.327538 -10.154309 12.933110 -21.189021 2.429073 15.813498 15.678449 16.529102 0.000000 0.000000 0.000000 -7.125000 0.000000 0.000000 -7.976694 12.960214 -6.044941 0.000000 0.000000 0.000000 -0.566007 26.607315 14.797227 -18.348984 -28.601666 -4.715128 6.124479 23.133685 24.303655 0.000000 0.000000 0.000000 7.125000 0.000000 0.000000 35.047968 50.745794 -5.552905
-0.056680 17.447493 9.722156 -1.164695 39.679313 10.538356 0.000000 0.000000 0.000000 -13.765716 -37.050692 6.491317 0.028570 -1.091669 -3.001166 -0.627185 14.027186 -7.501346 1.105047 -6.679210 -18.768394 0.000000 0.000000 0.000000 32.010298 20.727326 18.968336 -0.005216 0.465797 -1.279881 -7.336944 -33.310590 -66.236641 -4.795822 -13.150098 39.932963 10.792024 5.291301 -8.147316 0.820569 7.836970 -16.555921 -5.193411 2.876039 -12.588407 5.782516 2.636010 1.254161 8.429479 7.641660 -29.917289 1.274543 2.359670 -9.933128 0.000000 0.000000 0.000000 -0.309112 28.498752 -8.642720 13.067848 -21.386493 2.477971 17.355388 15.009791 16.849178 0.000000 0.000000 0.000000 -7.125000 0.000000 0.000000 -6.962264 12.472579 -5.333675 0.000000 0.000000 0.000000 -0.680975 26.873245 16.180740 -18.503373 -28.796868 -4.789284 6.190611 22.580609 24.310275 0.000000 0.000000 0.000000 7.125000 0.000000 0.000000 35.110392 50.740543 -5.560363
